<svg xmlns="http://www.w3.org/2000/svg" width="58" height="58" viewBox="0 0 58 58">
  <g id="ic_transportation" transform="translate(-66.141 -182.141)">
    <rect id="Rectangle_218" data-name="Rectangle 218" width="58" height="58" transform="translate(66.141 182.141)" fill="none"/>
    <path id="Path_266" data-name="Path 266" d="M45.925,13.714H39.854V8.857A4.871,4.871,0,0,0,35,4H5.857A4.871,4.871,0,0,0,1,8.857V30.712a4.871,4.871,0,0,0,4.857,4.857,7.285,7.285,0,1,0,14.57,0H35a7.285,7.285,0,0,0,14.57,0H52a2.436,2.436,0,0,0,2.428-2.428V25.054a4.886,4.886,0,0,0-.971-2.914l-5.585-7.455A2.462,2.462,0,0,0,45.925,13.714ZM13.142,38a2.428,2.428,0,1,1,2.428-2.428A2.436,2.436,0,0,1,13.142,38ZM45.925,17.356l4.76,6.071H39.854V17.356ZM42.282,38a2.428,2.428,0,1,1,2.428-2.428A2.436,2.436,0,0,1,42.282,38Z" transform="translate(67.428 190.142)" fill="#f28500"/>
  </g>
</svg>
