<svg xmlns="http://www.w3.org/2000/svg" width="66" height="66" viewBox="0 0 66 66">
  <g id="ic_jobslips" transform="translate(-65.949 -181.906)">
    <rect id="Rectangle_218" data-name="Rectangle 218" width="66" height="66" transform="translate(65.949 181.906)" fill="none"/>
    <path id="Path_137" data-name="Path 137" d="M45.754,59.151H13.24V53.664H45.754Zm0-10.974H13.24V42.691H45.754Zm0-10.974H13.24V31.717H45.754ZM5.111,72.868l4.063-4.115,4.066,4.115,4.066-4.115,4.063,4.115,4.066-4.115L29.5,72.868l4.063-4.115,4.066,4.115,4.063-4.115,4.066,4.115,4.066-4.115,4.063,4.115V18L49.82,22.115,45.754,18l-4.066,4.115L37.626,18,33.56,22.115,29.5,18l-4.063,4.115L21.368,18l-4.063,4.115L13.24,18,9.174,22.115,5.111,18Z" transform="translate(69.119 169.5)" fill="#1992d0"/>
  </g>
</svg>
