<svg xmlns="http://www.w3.org/2000/svg" width="58" height="58" viewBox="0 0 58 58">
  <g id="Group_2442" data-name="Group 2442" transform="translate(-725.842 -1218.842)">
    <g id="Rectangle_1120" data-name="Rectangle 1120" transform="translate(725.842 1218.842)" fill="#fff" stroke="#707070" stroke-width="1" opacity="0">
      <rect width="58" height="58" stroke="none"/>
      <rect x="0.5" y="0.5" width="57" height="57" fill="none"/>
    </g>
    <g id="Group_2441" data-name="Group 2441" transform="translate(731.175 1223.614)">
      <path id="Path_2615" data-name="Path 2615" d="M-442.32,2730.578h-32.767a11.658,11.658,0,0,1-1.449,6.864c.186.011.273.019.361.019q14.612,0,29.224-.007a4.286,4.286,0,0,0,1.3-.194C-443.275,2736.5-441.911,2733.752-442.32,2730.578Z" transform="translate(489.581 -2689.017)" fill="#0eb66b"/>
      <g id="Group_2441-2" data-name="Group 2441">
        <path id="Path_2616" data-name="Path 2616" d="M-396.584,2488.7c-1.885-.02-3.769-.005-5.654-.005v0c-1.832,0-3.664-.017-5.5.015a2.511,2.511,0,0,0-1.147.3,1.862,1.862,0,0,0-.838,2.1,1.829,1.829,0,0,0,1.716,1.408c3.821.025,7.643.015,11.465.009a1.614,1.614,0,0,0,.515-.1,1.928,1.928,0,0,0,1.277-2.077A1.9,1.9,0,0,0-396.584,2488.7Z" transform="translate(432.252 -2481.281)" fill="none"/>
        <path id="Path_2617" data-name="Path 2617" d="M-396.736,2560.443q-5.442-.007-10.884,0a2.533,2.533,0,0,0-.777.1,1.887,1.887,0,0,0-1.269,2.121,1.876,1.876,0,0,0,1.819,1.606c1.884.019,3.769.006,5.653.006v0c1.814,0,3.628,0,5.442,0a1.93,1.93,0,0,0,2.1-1.941A1.923,1.923,0,0,0-396.736,2560.443Z" transform="translate(432.172 -2542.903)" fill="none"/>
        <path id="Path_2618" data-name="Path 2618" d="M-396.78,2631.982q-5.443-.019-10.885,0a2.555,2.555,0,0,0-1.019.217,1.9,1.9,0,0,0-1.016,2.168,1.921,1.921,0,0,0,1.892,1.476c1.849.014,3.7,0,5.548.005,1.814,0,3.628,0,5.443,0a1.943,1.943,0,0,0,2.112-1.94A1.94,1.94,0,0,0-396.78,2631.982Z" transform="translate(432.227 -2604.336)" fill="none"/>
        <path id="Path_2619" data-name="Path 2619" d="M-526.86,2437.127c0-.814-.068-.884-.865-.884q-20.185,0-40.371.009a3.357,3.357,0,0,0-.831.22v43.441c.092.338.169.681.279,1.012a5.485,5.485,0,0,0,5.887,3.727,5.423,5.423,0,0,0,4.74-5.09c.066-1.159.028-2.324.037-3.485a1.956,1.956,0,0,1,2.186-2.184h28.937v-.569Q-526.86,2455.226-526.86,2437.127Zm-25.075,8.958h-3.045c.224.406.463.78.643,1.18s.3.83.461,1.273h1.936V2451h-1.928c-1.04,3.438-3.359,5.028-6.888,4.923l5.459,5.442-1.792,1.736h-.038c-.044-.053-.084-.108-.132-.156q-3.45-3.441-6.9-6.879a.46.46,0,0,1-.155-.363c.008-.672,0-1.344,0-2.015v-.236h.237c1.385,0,2.771.021,4.156-.008a3.6,3.6,0,0,0,3.33-2.144c.045-.088.077-.182.125-.3h-.255c-2.453,0-4.905,0-7.358,0-.2,0-.244-.054-.24-.243.011-.665,0-1.33,0-2v-.219h7.876a8.463,8.463,0,0,0-.425-.79,3.545,3.545,0,0,0-2.987-1.658c-1.4-.029-2.8-.01-4.193-.011h-.257v-2.44h12.365Zm18.418,21.671c-1.814.005-3.628,0-5.443,0-1.849,0-3.7.008-5.548-.005a1.922,1.922,0,0,1-1.892-1.475,1.9,1.9,0,0,1,1.016-2.168,2.546,2.546,0,0,1,1.019-.216q5.442-.023,10.885-.006a1.941,1.941,0,0,1,2.074,1.929A1.943,1.943,0,0,1-533.517,2467.757Zm.011-10.134c-1.814,0-3.628,0-5.442,0v0c-1.884,0-3.769.013-5.653-.006a1.876,1.876,0,0,1-1.819-1.607,1.887,1.887,0,0,1,1.269-2.121,2.548,2.548,0,0,1,.777-.1q5.442-.011,10.884,0a1.923,1.923,0,0,1,2.085,1.9A1.929,1.929,0,0,1-533.506,2457.623Zm.81-10.23a1.626,1.626,0,0,1-.515.1c-3.821,0-7.643.016-11.465-.009a1.829,1.829,0,0,1-1.716-1.408,1.861,1.861,0,0,1,.838-2.1,2.518,2.518,0,0,1,1.147-.3c1.831-.03,3.663-.014,5.5-.014v0c1.884,0,3.769-.013,5.654.006a1.894,1.894,0,0,1,1.839,1.655A1.928,1.928,0,0,1-532.7,2447.393Z" transform="translate(568.926 -2436.242)" fill="#0eb66b"/>
      </g>
    </g>
  </g>
</svg>
