<svg xmlns="http://www.w3.org/2000/svg" width="65" height="65" viewBox="0 0 65 65">
  <g id="ic_purchase_order" transform="translate(12.27 -39.73)">
    <rect id="Rectangle_218" data-name="Rectangle 218" width="65" height="65" transform="translate(-12.27 39.73)" fill="none"/>
    <path id="Path_127" data-name="Path 127" d="M3.936,81.967H33.5a2.785,2.785,0,0,1,0,5.564H3.307A5.445,5.445,0,0,1-.628,94.152a5.445,5.445,0,0,1-6.621-3.935A5.443,5.443,0,0,1-3.314,83.6a5.4,5.4,0,0,1,1.34-.169h.3V54.88l-5.832-7.822a2.77,2.77,0,0,1,.7-3.855l.011-.008a2.816,2.816,0,0,1,3.785.556l6.4,8.539a2.76,2.76,0,0,1,.535,1.634ZM9.457,53.775a1.905,1.905,0,0,0-1.91,1.891V76.5a1.9,1.9,0,0,0,1.91,1.9H30.4a1.9,1.9,0,0,0,1.91-1.9h0V55.688a1.9,1.9,0,0,0-1.91-1.9Z" transform="translate(6.698 4.525)" fill="#1992d0"/>
  </g>
</svg>
