<svg id="ic_design_stock" xmlns="http://www.w3.org/2000/svg" width="58.283" height="58.283" viewBox="0 0 58.283 58.283">
  <path id="Path_297" data-name="Path 297" d="M21.288,43.637a18.805,18.805,0,0,1-.138-2.217c0-.291.029-.576.044-.865L5.564,33.69V14.442l17.067,7.494V34.069a20.532,20.532,0,0,1,1.156-2.341,19.324,19.324,0,0,1,1.773-2.494v-7.29l7.072-3.106V22.48a1.451,1.451,0,0,0,.561,1.112,19.52,19.52,0,0,1,2.292-.765,1.248,1.248,0,0,0,.073-.35V17.553l7.072-3.121v7.875a20.467,20.467,0,0,1,2.2.4c.245.058.483.138.726.206V12.361a1.718,1.718,0,0,0-.869-1.479L24.693,2.108a1.482,1.482,0,0,0-.716-.121h0a1.53,1.53,0,0,0-.474.121l-20,8.779a1.4,1.4,0,0,0-.867,1.418V34.649a1.5,1.5,0,0,0,.867,1.326L21.32,43.8C21.312,43.744,21.3,43.693,21.288,43.637Z" transform="translate(3.764 2.831)" fill="#f28500"/>
  <path id="Path_339" data-name="Path 339" d="M18.273,13.393c-.012,0-.019.012-.032.012.029,0,.053.007.083.007C18.3,13.41,18.292,13.393,18.273,13.393Z" transform="translate(26.056 19.043)" fill="#f28500"/>
  <path id="Path_340" data-name="Path 340" d="M40.617,26.554a13.552,13.552,0,0,0-.073-1.411v-.024A14.122,14.122,0,0,0,26.493,12.437h0A14.124,14.124,0,0,0,12.367,26.561h0a13.9,13.9,0,0,0,.126,1.782c.017.141.041.277.063.415a13.859,13.859,0,0,0,.308,1.464c.024.09.041.177.068.265a13.766,13.766,0,0,0,.617,1.719v0a14.039,14.039,0,0,0,.816,1.564c.046.08.095.158.141.236a14.194,14.194,0,0,0,2.28,2.793l.138.129a14.661,14.661,0,0,0,1.4,1.141l.012.007a14.076,14.076,0,0,0,19.4-3L37.8,35A14.105,14.105,0,0,0,40.1,30.325c.029-.1.053-.206.08-.311q.168-.67.272-1.365c.017-.126.041-.253.058-.381a14.64,14.64,0,0,0,.112-1.707v-.007ZM25.663,16.764a.835.835,0,0,1,.629-.3h.2v-.444c0-.185.148-.274.257-.342.134-.083.211-.136.211-.284a.3.3,0,0,0-.6,0,.168.168,0,1,1-.335,0,.63.63,0,0,1,.6-.624c.029,0,.053.007.083.007a.627.627,0,0,1,.585.617.636.636,0,0,1-.372.571.644.644,0,0,0-.1.07v.43h.238a.8.8,0,0,1,.631.3,7.4,7.4,0,0,0,1.649,1.4c-.061.134-.136.294-.219.459A17.77,17.77,0,0,1,27.3,17.464a1.08,1.08,0,0,0-.6-.248h-.044a1.08,1.08,0,0,0-.6.248,17.437,17.437,0,0,1-1.892,1.192c-.083-.163-.155-.318-.219-.457A7.337,7.337,0,0,0,25.663,16.764ZM34.354,29.3a3.157,3.157,0,0,1-1.28.148L30.7,22.831a22.36,22.36,0,0,0-.306,3.014c0,1.68.984,4.165,1.438,7.3a11.278,11.278,0,0,1,.282,1.192c.095.571.209,1.423.328,2.39a11.644,11.644,0,0,1-11.091.442c0-.359-.007-.719-.007-1.056,0-4.568,1.668-8.089,1.668-10.27a22.532,22.532,0,0,0-.3-3.014l-2.375,6.615a3.157,3.157,0,0,1-1.28-.148,4.321,4.321,0,0,1-1.086-.549s1.918-6.97,3.155-9.328A3.689,3.689,0,0,1,23.183,18,3.844,3.844,0,0,0,26.7,20.8,3.844,3.844,0,0,0,30.226,18a3.692,3.692,0,0,1,2.062,1.421c1.236,2.358,3.155,9.328,3.155,9.328A4.371,4.371,0,0,1,34.354,29.3Z" transform="translate(17.666 17.596)" fill="#f28500" fill-rule="evenodd"/>
  <rect id="Rectangle_247" data-name="Rectangle 247" width="58.283" height="58.113" fill="none"/>
</svg>
