<svg xmlns="http://www.w3.org/2000/svg" width="59" height="59" viewBox="0 0 59 59">
  <g id="ic_sales_order" transform="translate(-66 -182)">
    <rect id="Rectangle_218" data-name="Rectangle 218" width="59" height="59" transform="translate(66 182)" fill="none"/>
    <path id="Path_136" data-name="Path 136" d="M44.075,22.932H33.9a7.248,7.248,0,0,0-13.734,0H9.983a4.918,4.918,0,0,0-4.872,4.931v34.52a4.918,4.918,0,0,0,4.872,4.931H44.075a4.918,4.918,0,0,0,4.872-4.931V27.863A4.918,4.918,0,0,0,44.075,22.932Zm-17.046,0a2.466,2.466,0,1,1-2.436,2.5V25.4A2.468,2.468,0,0,1,27.029,22.932ZM31.9,57.452H14.853V52.52H31.9Zm7.3-9.863H14.853V42.657H39.2Zm0-9.863H14.853V32.795H39.2Z" transform="translate(68.286 168.932)" fill="#0eb66b"/>
  </g>
</svg>
